<?xml version="1.0" standalone="no"?>
<!DOCTYPE svg PUBLIC "-//W3C//DTD SVG 20010904//EN"
 "http://www.w3.org/TR/2001/REC-SVG-20010904/DTD/svg10.dtd">
<svg version="1.0" xmlns="http://www.w3.org/2000/svg"
 width="256.000000pt" height="256.000000pt" viewBox="0 0 256.000000 256.000000"
 preserveAspectRatio="xMidYMid meet">
<metadata>
Created by potrace 1.11, written by Peter Selinger 2001-2013
</metadata>
<g transform="translate(0.000000,256.000000) scale(0.100000,-0.100000)"
fill="#000000" stroke="none">
<path d="M2005 2544 c-169 -41 -349 -182 -433 -339 -25 -46 -27 -59 -27 -173
l-1 -122 -49 -36 c-123 -87 -254 -146 -485 -216 -251 -76 -367 -138 -530 -283
-109 -97 -182 -138 -305 -171 -55 -14 -112 -32 -126 -40 -30 -15 -54 -64 -45
-92 10 -30 94 -91 150 -107 135 -40 269 12 460 180 162 144 234 175 566 246
102 22 202 44 223 50 22 6 41 8 43 6 2 -2 -7 -53 -21 -113 -13 -60 -38 -170
-54 -244 -33 -149 -70 -262 -107 -327 -13 -23 -65 -88 -115 -145 -136 -155
-199 -276 -199 -383 0 -80 71 -214 122 -231 28 -9 77 15 92 45 8 14 26 71 40
126 33 123 74 196 171 305 150 168 205 273 294 565 57 184 123 333 195 435
l45 64 123 1 c114 0 127 2 173 27 241 129 404 442 341 652 -17 56 -41 86 -69
86 -19 0 -192 -115 -214 -142 -6 -7 -13 -33 -17 -58 -9 -63 -38 -105 -88 -131
-36 -18 -53 -21 -111 -16 -38 3 -71 8 -74 10 -2 3 -7 36 -10 74 -10 118 36
178 155 202 l57 11 68 101 c37 55 67 108 67 118 0 65 -161 100 -305 65z m162
-92 c8 -5 1 -21 -23 -53 -29 -39 -42 -48 -94 -62 -75 -21 -139 -77 -169 -148
-17 -39 -22 -67 -20 -129 2 -71 -1 -83 -28 -127 -16 -26 -32 -56 -36 -66 -8
-21 12 -64 43 -92 22 -20 50 -66 50 -83 0 -4 -31 -49 -69 -99 -118 -156 -187
-299 -256 -534 -75 -256 -121 -344 -269 -514 -103 -118 -164 -225 -186 -325
-7 -30 -16 -61 -20 -69 -14 -26 -34 30 -33 89 1 92 50 180 177 320 43 47 92
110 111 140 51 85 99 237 150 476 26 122 68 284 95 365 63 188 74 259 61 383
-16 140 -14 175 15 235 37 80 158 196 254 243 94 46 214 71 247 50z m284 -381
c-17 -111 -68 -207 -161 -302 -95 -98 -161 -132 -247 -127 l-58 3 3 36 c3 38
-18 101 -44 130 -14 16 -13 19 11 35 20 13 45 16 105 15 62 -2 90 3 129 20 71
30 127 94 148 169 14 52 23 65 62 95 60 44 69 31 52 -74z m-906 -328 c-4 -21
-17 -67 -29 -103 -22 -65 -23 -65 -77 -83 -30 -9 -148 -38 -264 -63 -265 -56
-323 -74 -432 -129 -62 -31 -115 -68 -178 -126 -145 -132 -232 -181 -325 -182
-59 -1 -115 19 -89 33 8 4 39 13 69 20 93 21 194 76 291 158 213 182 274 216
519 288 212 63 378 133 471 199 46 33 52 31 44 -12z"/>
</g>
</svg>
