<?xml version="1.0" encoding="utf-8"?>
<!-- Generator: Adobe Illustrator 16.0.0, SVG Export Plug-In . SVG Version: 6.00 Build 0)  -->
<!DOCTYPE svg PUBLIC "-//W3C//DTD SVG 1.1//EN" "http://www.w3.org/Graphics/SVG/1.1/DTD/svg11.dtd">
<svg version="1.1" id="Layer_1" xmlns="http://www.w3.org/2000/svg" xmlns:xlink="http://www.w3.org/1999/xlink" x="0px" y="0px"
	 width="300px" height="300px" viewBox="0 0 300 300" enable-background="new 0 0 300 300" xml:space="preserve">
<g>
	<polygon fill="#534741" points="238.723,145.014 238.723,143.168 157.714,61.754 153.642,65.783 228.702,141.237 67.371,141.237 
		67.371,147.232 228.417,147.232 153.646,222.399 157.714,226.434 	"/>
	<path fill="#534741" d="M235.773,226.817c22.101-22.096,34.271-51.474,34.271-82.727c0-31.248-12.171-60.626-34.271-82.725
		c-22.096-22.101-51.473-34.271-82.725-34.271c-31.251,0-60.633,12.17-82.729,34.271c-22.096,22.096-34.27,51.473-34.27,82.725
		c0,31.253,12.174,60.636,34.27,82.727c22.096,22.101,51.478,34.27,82.729,34.27C184.301,261.087,213.678,248.918,235.773,226.817z
		 M42.044,144.091c0-29.649,11.548-57.528,32.509-78.491c20.968-20.968,48.841-32.514,78.495-32.514
		c29.646,0,57.524,11.546,78.496,32.514c20.96,20.963,32.509,48.842,32.509,78.491c0,29.651-11.549,57.528-32.517,78.492
		c-20.964,20.968-48.842,32.514-78.488,32.514c-29.654,0-57.526-11.546-78.495-32.514C53.592,201.619,42.044,173.742,42.044,144.091
		z"/>
</g>
</svg>
