<?xml version="1.0" encoding="utf-8"?>
<!-- Generator: Adobe Illustrator 16.0.0, SVG Export Plug-In . SVG Version: 6.00 Build 0)  -->
<!DOCTYPE svg PUBLIC "-//W3C//DTD SVG 1.1//EN" "http://www.w3.org/Graphics/SVG/1.1/DTD/svg11.dtd">
<svg version="1.1" id="Layer_1" xmlns="http://www.w3.org/2000/svg" xmlns:xlink="http://www.w3.org/1999/xlink" x="0px" y="0px"
	 width="300px" height="300px" viewBox="0 0 300 300" enable-background="new 0 0 300 300" xml:space="preserve">
<g>
	<polygon fill="#534741" points="152.124,229.767 153.969,229.767 235.383,148.757 231.354,144.686 155.9,219.746 155.9,58.415 
		149.905,58.415 149.905,219.461 74.737,144.69 70.704,148.757 	"/>
	<path fill="#534741" d="M70.319,226.817c22.096,22.101,51.474,34.271,82.727,34.271c31.248,0,60.626-12.171,82.725-34.271
		c22.101-22.096,34.271-51.473,34.271-82.725c0-31.251-12.17-60.633-34.271-82.729c-22.096-22.096-51.473-34.27-82.725-34.27
		c-31.253,0-60.636,12.174-82.727,34.27c-22.1,22.096-34.27,51.478-34.27,82.729C36.05,175.345,48.219,204.722,70.319,226.817z
		 M153.046,33.088c29.649,0,57.528,11.548,78.491,32.509c20.968,20.968,32.514,48.841,32.514,78.495
		c0,29.646-11.546,57.524-32.514,78.496c-20.963,20.96-48.842,32.509-78.491,32.509c-29.651,0-57.528-11.549-78.493-32.517
		c-20.968-20.964-32.514-48.842-32.514-78.488c0-29.654,11.546-57.526,32.514-78.495C95.518,44.636,123.395,33.088,153.046,33.088z"
		/>
</g>
</svg>
