<?xml version="1.0" encoding="utf-8"?>
<!-- Generator: Adobe Illustrator 16.0.0, SVG Export Plug-In . SVG Version: 6.00 Build 0)  -->
<!DOCTYPE svg PUBLIC "-//W3C//DTD SVG 1.1//EN" "http://www.w3.org/Graphics/SVG/1.1/DTD/svg11.dtd">
<svg version="1.1" id="Layer_1" xmlns="http://www.w3.org/2000/svg" xmlns:xlink="http://www.w3.org/1999/xlink" x="0px" y="0px"
	 width="300px" height="300px" viewBox="0 0 300 300" enable-background="new 0 0 300 300" xml:space="preserve">
<g>
	<polygon fill="#534741" points="67.371,143.168 67.371,145.014 148.379,226.428 152.451,222.399 77.391,146.945 238.722,146.945 
		238.722,140.95 77.676,140.95 152.447,65.782 148.379,61.748 	"/>
	<path fill="#534741" d="M70.32,61.364c-22.101,22.096-34.272,51.474-34.272,82.727c0,31.248,12.171,60.627,34.272,82.726
		c22.096,22.101,51.473,34.271,82.725,34.271c31.251,0,60.633-12.17,82.729-34.271c22.097-22.096,34.271-51.473,34.271-82.726
		s-12.174-60.636-34.271-82.727c-22.096-22.101-51.478-34.27-82.729-34.27C121.792,27.095,92.416,39.264,70.32,61.364z
		 M264.049,144.091c0,29.649-11.548,57.528-32.51,78.491c-20.968,20.968-48.841,32.514-78.494,32.514
		c-29.646,0-57.524-11.546-78.496-32.514c-20.96-20.963-32.509-48.842-32.509-78.491c0-29.651,11.549-57.528,32.517-78.492
		c20.964-20.968,48.842-32.514,78.488-32.514c29.653,0,57.526,11.546,78.494,32.514C252.501,86.562,264.049,114.439,264.049,144.091
		z"/>
</g>
</svg>
